<svg id="Layer_2" xmlns="http://www.w3.org/2000/svg" viewBox="0 0 161.95 244.28">
<g id="Layer_1-2">
  <path className="cls-1" fill="#3cc96b" d="m23.97,140.54c-3.15,8.33-6.53,17.1-9.23,25.2-.9,2.02-1.35,4.05-2.92,6.3-.9,1.13-2.02,2.7-3.37,3.15-1.35.67-2.7.22-3.37-1.58-.67-.67-.67-2.02-1.58-2.47-3.83-4.73-3.83-10.13-3.15-15.75,1.35-8.1,4.95-11.93,6.53-20.93.23-2.25,7.03-19.66,6.13-21.91-1.1-3.74-.69-7.91-.68-11.68,0-.16.08-.31.21-.4,2.41-1.71,4.78-2.85,6.09-5.48,2.25-2.02,2.47-5.18,3.37-8.1,7.88-21.15,9.62-31.64,21.09-51.89.67-1.35,1.35-2.93,2.7-5.4-1.8.23-2.48.23-3.6.67-7.88,2.48-15.52,5.63-22.95,10.13-1.35.9-3.15,1.8-5.18,2.25-1.12.9-3.37-.22-3.6-1.8-1.13-9.23-3.15-8.78,5.18-15.75C30.72,14.09,47.82,6.44,66.49,2.62c13.05-3.37,26.33-3.6,39.6,0,5.85,1.13,11.47,3.6,16.88,6.53,2.02,1.58,4.27,3.37,5.85,5.63,2.02,2.02,4.27,4.5,5.18,7.2,1.8,6.75,3.37,13.27,2.7,20.93-1.58,16.43-.4,13.05-10.53,25.2-11.25,13.73-24.52,25.65-40.5,33.08-15.3,6.75-31.05,12.15-48.15,12.6-1.13,0-1.58.23-3.15.23-.9,3.37-9.5,23.4-10.4,26.55ZM117.5,38.74c-1.21-3.88-3.76-7.2-7.2-9.35-1.65-1.03-3.44-2.04-5.33-2.92-7.88-4.28-15.97-5.18-23.85-5.18-6.08-.23-11.7-.23-17.55,1.12-2.93,9.68-6.07,18.23-8.33,26.33-6.3,20.02-6.03,22.5-12.1,42.75-.45,1.8-1.12,3.15-.22,4.95.22,0,.22.22.67.22,1.13-.22,2.02-.22,2.92-.9,21.15-6.75,39.6-19.35,56.7-35.1l12.56-12.15c2.25-2.18,3.08-5.44,2.14-8.43l-.43-1.36Z"/>
  <path className="cls-1" fill="#3cc96b" d="m41.72,223.48c2.76,0,6.05-.17,8.81-.35,1.55,0,3.11,0,4.15-1.04,0-11.06,3.63-21.25,6.39-31.96,4.32-16.93,9.67-33.34,16.59-49.58,1.38-3.11,2.76-6.56,3.97-9.5.52-1.38.86-2.25,1.73-4.15-6.22.86-11.23,3.11-16.58,5.53-12.09,5.01-23.15,12.27-28.51,18.31,0,1.21.35,2.42.35,3.8.17,1.38-.69,2.25-1.73,2.25-2.59.35-4.84-.69-5.53-3.63-.35-.69-.52-1.38-.69-1.9-1.04-2.76-1.04-5.01.69-7.43,1.9-2.42,3.63-4.66,5.7-7.08,8.98-8.81,19.52-15.37,30.92-20.56,8.12-3.46,16.76-6.22,25.22-8.12,6.91-1.21,13.82-1.38,20.21-1.38s12.44.52,18.66,2.07c7.43,1.9,14.34,5.01,20.21,10.54,3.11,2.94,5.36,6.91,7.08,10.88,4.66,14.34,2.76,27.47-3.8,40.43-5.87,12.44-14.68,22.29-24.53,31.79-16.93,16.41-36.62,28.68-58.39,37.32-6.91,2.07-13.99,4.15-21.08,4.49-4.32.17-8.64.17-12.96-1.9-1.73-1.04-3.63-2.07-5.36-3.63-1.21-.52-1.9-1.55-2.25-2.94-1.04-4.15-2.24-7.95-2.59-12.44,0-1.55.52-2.94,1.21-4.32,1.9-3.11,4.84-5.36,7.6-7.26.52-.17,1.21-.35,1.73-.35,1.9-.35,3.8.86,3.8,2.25,0,1.73-.69,3.8-1.04,5.36-.17,1.55-1.04,2.59-1.73,3.97.69.17,1.21.52,1.73.52Zm27.47-4.49c11.23-3.63,21.25-8.29,30.58-13.99,16.58-9.85,30.58-22.63,41.98-38.7,3.28-4.84,6.05-10.02,7.95-15.55,2.42-5.87.86-10.71-2.94-15.03-1.55-1.38-3.11-2.76-4.32-3.8-3.28-2.59-6.74-3.97-10.36-5.36-7.6-2.76-15.72-3.28-23.67-3.11-2.94,0-5.7-.17-8.81.52-11.4,31.96-22.98,63.23-34.03,96.4,1.9-1.04,2.76-1.21,3.63-1.38Z"/></g></svg>